# xmcd CD database file
#
# Track frame offsets:
#	150
#	13269
#	24129
#	36381
#	50248
#	64428
#	75584
#	85258
#	93858
#	103763
#	115423
#	122989
#	138431
#	146238
#	160166
#	176616
#
# Disc length: 2492 seconds
#
# Revision: 0
# Processed by: cddbd v1.5.2PL0 Copyright (c) Steve Scherf et al.
# Submitted via: CDex 1.70beta2
#
DISCID=e309ba10
DTITLE=Vašek Maršálek - Pozvání
DYEAR=1900
DGENRE=Country
TTITLE0=Pozvání
TTITLE1=Kotel zlata
TTITLE2=Sázka
TTITLE3=Sultán
TTITLE4=Mejdlo
TTITLE5=Magdalena
TTITLE6=Na majáku
TTITLE7=Ukolébavka pro polární lišku
TTITLE8=Vlaky
TTITLE9=Kovboj
TTITLE10=Macarát
TTITLE11=Alberta
TTITLE12=Rozbitý banjo
TTITLE13=Kouří
TTITLE14=Píseň staré vydry
TTITLE15=Adios
EXTD=
EXTT0=
EXTT1=
EXTT2=
EXTT3=
EXTT4=
EXTT5=
EXTT6=
EXTT7=
EXTT8=
EXTT9=
EXTT10=
EXTT11=
EXTT12=
EXTT13=
EXTT14=
EXTT15=
PLAYORDER=
